<svg width="28" height="26" viewBox="0 0 28 26" fill="none" xmlns="http://www.w3.org/2000/svg">
<path d="M13.52 0C6.07048 0 0 5.837 0 13C0 20.163 6.07048 26 13.52 26C20.9695 26 27.04 20.163 27.04 13C27.04 5.837 20.9695 0 13.52 0ZM19.9826 10.01L12.3167 17.381C12.1274 17.563 11.8706 17.667 11.6002 17.667C11.3298 17.667 11.0729 17.563 10.8836 17.381L7.05744 13.702C6.66536 13.325 6.66536 12.701 7.05744 12.324C7.44952 11.947 8.09848 11.947 8.49056 12.324L11.6002 15.314L18.5494 8.632C18.9415 8.255 19.5905 8.255 19.9826 8.632C20.3746 9.009 20.3746 9.62 19.9826 10.01Z" fill="#292D32"/>
</svg>
