<svg width="26" height="26" viewBox="0 0 26 26" fill="none" xmlns="http://www.w3.org/2000/svg">
<path d="M12.824 0C5.75799 0 0 5.837 0 13C0 20.163 5.75799 26 12.824 26C19.8901 26 25.6481 20.163 25.6481 13C25.6481 5.837 19.8901 0 12.824 0ZM17.1329 15.99C17.5048 16.367 17.5048 16.991 17.1329 17.368C16.9405 17.563 16.6969 17.654 16.4532 17.654C16.2096 17.654 15.9659 17.563 15.7736 17.368L12.824 14.378L9.8745 17.368C9.68214 17.563 9.43849 17.654 9.19483 17.654C8.95117 17.654 8.70752 17.563 8.51516 17.368C8.14326 16.991 8.14326 16.367 8.51516 15.99L11.4647 13L8.51516 10.01C8.14326 9.633 8.14326 9.009 8.51516 8.632C8.88705 8.255 9.50261 8.255 9.8745 8.632L12.824 11.622L15.7736 8.632C16.1455 8.255 16.761 8.255 17.1329 8.632C17.5048 9.009 17.5048 9.633 17.1329 10.01L14.1834 13L17.1329 15.99Z" fill="#292D32"/>
</svg>
